<?xml version="1.0" encoding="UTF-8"?>
<svg id="Livello_2" data-name="Livello 2" xmlns="http://www.w3.org/2000/svg" viewBox="0 0 276.38 177.17">
  <defs>
    <style>
      .cls-1 {
        fill: #03e0cf;
      }

      .cls-2 {
        fill: #041917;
      }
    </style>
  </defs>
  <g id="Brand_Icon" data-name="Brand Icon">
    <rect class="cls-1" width="276.38" height="177.17"/>
    <g>
      <rect class="cls-2" x="42.51" y="120.43" width="14.15" height="14.22"/>
      <polygon class="cls-2" points="145.35 70.79 138.27 70.79 138.27 63.81 124.26 63.81 124.26 70.79 117.18 70.79 117.18 77.9 110.11 77.9 110.11 70.79 102.9 70.79 102.9 63.81 88.89 63.81 88.89 70.79 81.81 70.79 81.81 63.81 67.66 63.81 67.66 134.65 81.81 134.65 81.81 85.01 88.89 85.01 88.89 77.9 95.96 77.9 95.96 84.88 103.03 84.88 103.03 134.65 117.18 134.65 117.18 85.01 124.26 85.01 124.26 77.9 131.2 77.9 131.2 85.01 138.27 85.01 138.27 134.65 152.42 134.65 152.42 77.9 145.35 77.9 145.35 70.79"/>
      <path class="cls-2" d="M212.68,42.49v28.31h-6.94v-6.98h-28.3v6.98h-7.07v7.11h-6.94v42.52h6.94v7.11h7.07v7.11h28.3v-7.11h6.94v7.11h14.15V42.49h-14.15ZM212.68,113.32h-6.94v7.11h-21.22v-7.11h-7.07v-28.31h7.07v-7.11h21.22v7.11h6.94v28.31Z"/>
    </g>
  </g>
</svg>