<?xml version="1.0" encoding="UTF-8"?>
<svg id="Livello_2" data-name="Livello 2" xmlns="http://www.w3.org/2000/svg" viewBox="0 0 865.12 177.17">
  <defs>
    <style>
      .cls-1 {
        fill: #fffafb;
      }

      .cls-2 {
        fill: #e05a03;
      }

      .cls-3 {
        fill: #190c04;
      }
    </style>
  </defs>
  <g id="workshop">
    <rect class="cls-3" width="865.12" height="177.17"/>
    <g>
      <rect class="cls-2" x="631.26" y="120.43" width="14.15" height="14.22"/>
      <polygon class="cls-2" points="734.09 70.79 727.02 70.79 727.02 63.81 713 63.81 713 70.79 705.93 70.79 705.93 77.9 698.85 77.9 698.85 70.79 691.65 70.79 691.65 63.81 677.63 63.81 677.63 70.79 670.56 70.79 670.56 63.81 656.41 63.81 656.41 134.65 670.56 134.65 670.56 85.01 677.63 85.01 677.63 77.9 684.7 77.9 684.7 84.88 691.78 84.88 691.78 134.65 705.93 134.65 705.93 85.01 713 85.01 713 77.9 719.94 77.9 719.94 85.01 727.02 85.01 727.02 134.65 741.16 134.65 741.16 77.9 734.09 77.9 734.09 70.79"/>
      <path class="cls-2" d="M801.42,42.49v28.31h-6.94v-6.98h-28.3v6.98h-7.07v7.11h-6.94v42.52h6.94v7.11h7.07v7.11h28.3v-7.11h6.94v7.11h14.15V42.49h-14.15ZM801.42,113.32h-6.94v7.11h-21.22v-7.11h-7.07v-28.31h7.07v-7.11h21.22v7.11h6.94v28.31Z"/>
    </g>
    <g>
      <polygon class="cls-1" points="138.97 67.32 123.06 118.87 108.33 67.32 95.31 67.32 79.93 118.87 64.54 67.32 49.55 67.32 71.51 134.65 86.9 134.65 101.62 88.88 115.83 134.65 131.08 134.65 153.44 67.32 138.97 67.32"/>
      <path class="cls-1" d="M205.51,70.87c-5.17-2.89-11.18-4.34-18.02-4.34s-12.73,1.45-17.95,4.34c-5.22,2.89-9.25,6.93-12.1,12.1-2.85,5.17-4.27,11.18-4.27,18.02s1.42,12.84,4.27,18.02c2.85,5.17,6.88,9.21,12.1,12.1,5.21,2.89,11.2,4.34,17.95,4.34s12.84-1.45,18.02-4.34c5.17-2.89,9.18-6.92,12.03-12.1,2.85-5.17,4.27-11.18,4.27-18.02s-1.43-12.84-4.27-18.02c-2.85-5.17-6.86-9.21-12.03-12.1ZM204.85,112.49c-1.67,3.38-3.97,6.03-6.9,7.96-2.94,1.93-6.42,2.89-10.45,2.89s-7.52-.96-10.45-2.89c-2.94-1.93-5.22-4.58-6.84-7.96-1.62-3.37-2.43-7.21-2.43-11.51s.81-8.24,2.43-11.57c1.62-3.33,3.9-5.96,6.84-7.89,2.94-1.93,6.42-2.89,10.45-2.89s7.52.96,10.45,2.89c2.94,1.93,5.24,4.56,6.9,7.89,1.66,3.33,2.5,7.19,2.5,11.57s-.83,8.13-2.5,11.51Z"/>
      <path class="cls-1" d="M253.24,69.22c-2.81,1.27-5.02,2.94-6.64,5-.85,1.08-1.65,2.21-2.39,3.38l-1.62-10.28h-12.62v67.33h14.2v-33.8c0-3.5.5-6.79,1.51-9.86,1.01-3.07,2.74-5.57,5.19-7.5,2.45-1.93,5.79-2.89,9.99-2.89h6.31v-13.28h-3.16c-4.38,0-7.98.64-10.78,1.91Z"/>
      <polygon class="cls-1" points="334.11 67.32 317.41 67.32 286.91 99.93 286.91 42.6 272.7 42.6 272.7 134.65 286.91 134.65 286.91 117.55 299 104.93 318.86 134.65 335.69 134.65 308.73 94.54 334.11 67.32"/>
      <path class="cls-1" d="M381.19,97.1c-4.21-1.18-8.9-2.08-14.07-2.7-3.24-.35-6.09-.74-8.55-1.18-2.46-.44-4.34-1.18-5.65-2.24-1.32-1.05-1.97-2.63-1.97-4.73,0-2.72,1.27-4.87,3.81-6.44,2.54-1.58,5.92-2.37,10.13-2.37s7.78.99,10.45,2.96c2.67,1.97,4.19,4.49,4.54,7.56h13.94c-.44-6.92-3.35-12.23-8.75-15.91-5.39-3.68-12.21-5.52-20.45-5.52-5.35-.09-10.1.72-14.27,2.43-4.17,1.71-7.43,4.14-9.8,7.3-2.37,3.16-3.55,6.88-3.55,11.18,0,3.51.72,6.4,2.17,8.68,1.45,2.28,3.42,4.1,5.92,5.46,2.5,1.36,5.39,2.41,8.68,3.16,3.29.75,6.86,1.34,10.72,1.78,3.51.44,6.49.9,8.94,1.38,2.45.48,4.34,1.27,5.65,2.37,1.31,1.1,1.97,2.87,1.97,5.33,0,1.75-.61,3.31-1.84,4.67-1.23,1.36-2.92,2.39-5.06,3.09-2.15.7-4.71,1.05-7.69,1.05-5.09,0-9.1-1.12-12.03-3.35-2.94-2.24-4.54-5.11-4.8-8.61h-13.94c.26,7.28,3.2,12.93,8.81,16.96,5.61,4.03,12.93,6.05,21.96,6.05,5.43,0,10.3-.85,14.6-2.56,4.29-1.71,7.69-4.14,10.19-7.3,2.5-3.16,3.75-6.88,3.75-11.18,0-5-1.25-8.83-3.75-11.51-2.5-2.67-5.85-4.6-10.06-5.79Z"/>
      <path class="cls-1" d="M451.8,69.55c-4.12-2.02-8.68-3.02-13.68-3.02-4.12,0-7.69.66-10.72,1.97-3.02,1.32-5.55,3.02-7.56,5.13-1.06,1.11-2.02,2.27-2.89,3.48v-34.52h-14.2v92.05h14.2v-34.06c0-4.47.72-8.35,2.17-11.64,1.45-3.29,3.51-5.81,6.18-7.56,2.67-1.75,5.89-2.63,9.67-2.63,5.26,0,9.27,1.67,12.03,5,2.76,3.33,4.14,8.2,4.14,14.6v36.29h14.2v-37.48c0-7.54-1.23-13.52-3.68-17.95-2.46-4.43-5.74-7.65-9.86-9.67Z"/>
      <path class="cls-1" d="M523.47,70.87c-5.17-2.89-11.18-4.34-18.02-4.34s-12.73,1.45-17.95,4.34c-5.22,2.89-9.25,6.93-12.1,12.1-2.85,5.17-4.27,11.18-4.27,18.02s1.42,12.84,4.27,18.02c2.85,5.17,6.88,9.21,12.1,12.1,5.21,2.89,11.2,4.34,17.95,4.34s12.84-1.45,18.02-4.34c5.17-2.89,9.18-6.92,12.03-12.1,2.85-5.17,4.27-11.18,4.27-18.02s-1.43-12.84-4.27-18.02c-2.85-5.17-6.86-9.21-12.03-12.1ZM522.81,112.49c-1.67,3.38-3.97,6.03-6.9,7.96-2.94,1.93-6.42,2.89-10.45,2.89s-7.52-.96-10.45-2.89c-2.94-1.93-5.22-4.58-6.84-7.96-1.62-3.37-2.43-7.21-2.43-11.51s.81-8.24,2.43-11.57c1.62-3.33,3.9-5.96,6.84-7.89,2.94-1.93,6.42-2.89,10.45-2.89s7.52.96,10.45,2.89c2.94,1.93,5.24,4.56,6.9,7.89,1.66,3.33,2.5,7.19,2.5,11.57s-.83,8.13-2.5,11.51Z"/>
      <path class="cls-1" d="M611.64,82.44c-2.76-5.17-6.53-9.12-11.31-11.83-4.78-2.72-10.24-4.08-16.37-4.08s-11.29,1.43-15.19,4.27c-2.71,1.98-4.97,4.18-6.81,6.6l-1.67-10.09h-12.36v93.63h14.2v-35.86c1.73,2.43,3.96,4.57,6.71,6.4,3.95,2.63,8.99,3.95,15.12,3.95s11.7-1.42,16.44-4.27c4.73-2.85,8.48-6.86,11.24-12.03,2.76-5.17,4.14-11.22,4.14-18.15s-1.38-13.37-4.14-18.54ZM598.89,112.62c-1.62,3.38-3.92,6.03-6.9,7.96-2.98,1.93-6.44,2.89-10.39,2.89s-7.39-.96-10.32-2.89c-2.94-1.93-5.22-4.6-6.84-8.02-1.62-3.42-2.43-7.36-2.43-11.83s.81-8.22,2.43-11.51c1.62-3.29,3.9-5.87,6.84-7.76,2.94-1.88,6.38-2.83,10.32-2.83s7.41.94,10.39,2.83c2.98,1.89,5.28,4.49,6.9,7.82,1.62,3.33,2.43,7.23,2.43,11.7s-.81,8.26-2.43,11.64Z"/>
    </g>
  </g>
</svg>