<?xml version="1.0" encoding="UTF-8"?>
<svg id="Livello_2" data-name="Livello 2" xmlns="http://www.w3.org/2000/svg" viewBox="0 0 732.97 177.17">
  <defs>
    <style>
      .cls-1 {
        fill: #fffafb;
      }

      .cls-2 {
        fill: #041219;
      }

      .cls-3 {
        fill: #0399e0;
      }
    </style>
  </defs>
  <g id="meetup">
    <rect class="cls-2" width="732.97" height="177.17"/>
    <g>
      <rect class="cls-3" x="499.1" y="120.43" width="14.15" height="14.22"/>
      <polygon class="cls-3" points="601.94 70.79 594.86 70.79 594.86 63.81 580.84 63.81 580.84 70.79 573.77 70.79 573.77 77.9 566.7 77.9 566.7 70.79 559.49 70.79 559.49 63.81 545.47 63.81 545.47 70.79 538.4 70.79 538.4 63.81 524.25 63.81 524.25 134.65 538.4 134.65 538.4 85.01 545.47 85.01 545.47 77.9 552.55 77.9 552.55 84.88 559.62 84.88 559.62 134.65 573.77 134.65 573.77 85.01 580.84 85.01 580.84 77.9 587.79 77.9 587.79 85.01 594.86 85.01 594.86 134.65 609.01 134.65 609.01 77.9 601.94 77.9 601.94 70.79"/>
      <path class="cls-3" d="M669.27,42.49v28.31h-6.94v-6.98h-28.3v6.98h-7.07v7.11h-6.94v42.52h6.94v7.11h7.07v7.11h28.3v-7.11h6.94v7.11h14.15V42.49h-14.15ZM669.27,113.32h-6.94v7.11h-21.22v-7.11h-7.07v-28.31h7.07v-7.11h21.22v7.11h6.94v28.31Z"/>
    </g>
    <g>
      <path class="cls-1" d="M139.76,69.42c-3.86-1.93-8.11-2.89-12.76-2.89-6.49,0-11.77,1.49-15.85,4.47-2.92,2.14-5.31,4.73-7.17,7.77-.84-1.86-1.87-3.49-3.09-4.88-2.24-2.54-4.89-4.41-7.96-5.59-3.07-1.18-6.31-1.78-9.73-1.78-4.03,0-7.45.64-10.26,1.91-2.81,1.27-5.11,2.87-6.9,4.8-.91.98-1.76,1.97-2.54,3l-1.6-8.91h-12.36v67.33h14.2v-36.03c0-3.94.66-7.43,1.97-10.45s3.13-5.35,5.46-6.97c2.32-1.62,5.11-2.43,8.35-2.43,4.73,0,8.28,1.54,10.65,4.6,2.37,3.07,3.55,7.54,3.55,13.41v37.87h14.33v-36.43c0-6.05,1.42-10.8,4.27-14.27,2.85-3.46,6.73-5.19,11.64-5.19,4.65,0,8.15,1.54,10.52,4.6,2.37,3.07,3.55,7.54,3.55,13.41v37.87h14.2v-38.79c0-7.1-1.12-12.8-3.35-17.09-2.24-4.29-5.28-7.41-9.14-9.34Z"/>
      <path class="cls-1" d="M208.21,70.41c-4.87-2.58-10.54-3.88-17.03-3.88s-12.36,1.45-17.36,4.34c-5,2.89-8.88,6.93-11.64,12.1-2.76,5.17-4.14,11.22-4.14,18.15s1.4,12.84,4.21,18.02c2.8,5.17,6.79,9.18,11.97,12.03,5.17,2.85,11.26,4.27,18.28,4.27,5.61,0,10.54-1.03,14.79-3.09,4.25-2.06,7.71-4.87,10.39-8.42,2.67-3.55,4.41-7.52,5.19-11.9h-14.2c-.97,3.68-2.96,6.58-5.98,8.68-3.02,2.1-6.69,3.16-10.98,3.16-3.68,0-6.93-.79-9.73-2.37-2.81-1.58-4.98-3.79-6.51-6.64-1.53-2.85-2.39-6.16-2.56-9.93v-.92h50.76c.09-.88.17-1.78.26-2.7.09-.92.13-1.82.13-2.7-.18-6.58-1.64-12.27-4.41-17.09-2.76-4.82-6.57-8.53-11.44-11.11ZM173.42,93.62c.35-3.24,1.38-6.03,3.09-8.35,1.71-2.32,3.86-4.12,6.44-5.39,2.58-1.27,5.37-1.91,8.35-1.91,5,0,9.09,1.36,12.29,4.08,3.2,2.72,5.11,6.57,5.72,11.57h-35.9Z"/>
      <path class="cls-1" d="M279.87,70.41c-4.87-2.58-10.54-3.88-17.03-3.88s-12.36,1.45-17.36,4.34c-5,2.89-8.88,6.93-11.64,12.1-2.76,5.17-4.14,11.22-4.14,18.15s1.4,12.84,4.21,18.02c2.8,5.17,6.79,9.18,11.97,12.03,5.17,2.85,11.26,4.27,18.28,4.27,5.61,0,10.54-1.03,14.79-3.09,4.25-2.06,7.71-4.87,10.39-8.42,2.67-3.55,4.41-7.52,5.19-11.9h-14.2c-.97,3.68-2.96,6.58-5.98,8.68-3.02,2.1-6.69,3.16-10.98,3.16-3.68,0-6.93-.79-9.73-2.37-2.81-1.58-4.98-3.79-6.51-6.64-1.53-2.85-2.39-6.16-2.56-9.93v-.92h50.76c.09-.88.17-1.78.26-2.7.09-.92.13-1.82.13-2.7-.18-6.58-1.64-12.27-4.41-17.09-2.76-4.82-6.57-8.53-11.44-11.11ZM245.09,93.62c.35-3.24,1.38-6.03,3.09-8.35,1.71-2.32,3.86-4.12,6.44-5.39,2.58-1.27,5.37-1.91,8.35-1.91,5,0,9.09,1.36,12.29,4.08,3.2,2.72,5.11,6.57,5.72,11.57h-35.9Z"/>
      <path class="cls-1" d="M323.33,120.51c-1.05-1.09-1.58-2.96-1.58-5.59v-35.11h16.44v-12.49h-16.44v-18.8h-14.33v18.8h-11.7v12.49h11.7v36.56c0,6.14,1.47,10.72,4.41,13.74,2.94,3.02,7.6,4.54,14,4.54h13.15v-12.49h-9.99c-2.72,0-4.6-.55-5.65-1.64Z"/>
      <path class="cls-1" d="M390.92,100.98c0,4.65-.7,8.61-2.1,11.9-1.4,3.29-3.4,5.81-5.98,7.56-2.59,1.75-5.68,2.63-9.27,2.63-5.17,0-9.07-1.66-11.7-5-2.63-3.33-3.94-8.28-3.94-14.86v-35.9h-14.2v37.48c0,5.7.7,10.52,2.1,14.46,1.4,3.95,3.33,7.1,5.79,9.47,2.45,2.37,5.28,4.08,8.48,5.13,3.2,1.05,6.6,1.58,10.19,1.58,6.22,0,11.11-1.27,14.66-3.81,2.37-1.69,4.4-3.55,6.13-5.55l1.57,8.58h12.49v-67.33h-14.2v33.66Z"/>
      <path class="cls-1" d="M479.49,82.44c-2.76-5.17-6.53-9.12-11.31-11.83-4.78-2.72-10.24-4.08-16.37-4.08s-11.29,1.43-15.19,4.27c-2.71,1.98-4.97,4.18-6.81,6.6l-1.67-10.09h-12.36v93.63h14.2v-35.86c1.73,2.43,3.96,4.57,6.71,6.4,3.95,2.63,8.99,3.95,15.12,3.95s11.7-1.42,16.44-4.27c4.73-2.85,8.48-6.86,11.24-12.03,2.76-5.17,4.14-11.22,4.14-18.15s-1.38-13.37-4.14-18.54ZM466.73,112.62c-1.62,3.38-3.92,6.03-6.9,7.96-2.98,1.93-6.44,2.89-10.39,2.89s-7.39-.96-10.32-2.89c-2.94-1.93-5.22-4.6-6.84-8.02-1.62-3.42-2.43-7.36-2.43-11.83s.81-8.22,2.43-11.51c1.62-3.29,3.9-5.87,6.84-7.76,2.94-1.88,6.38-2.83,10.32-2.83s7.41.94,10.39,2.83c2.98,1.89,5.28,4.49,6.9,7.82,1.62,3.33,2.43,7.23,2.43,11.7s-.81,8.26-2.43,11.64Z"/>
    </g>
  </g>
</svg>