<?xml version="1.0" encoding="UTF-8"?>
<svg id="Livello_2" data-name="Livello 2" xmlns="http://www.w3.org/2000/svg" viewBox="0 0 498.11 177.17">
  <defs>
    <style>
      .cls-1 {
        fill: #fffafb;
      }

      .cls-2 {
        fill: #e00384;
      }

      .cls-3 {
        fill: #190410;
      }
    </style>
  </defs>
  <g id="talk">
    <rect class="cls-3" width="498.11" height="177.17"/>
    <g>
      <rect class="cls-2" x="264.24" y="120.43" width="14.15" height="14.22"/>
      <polygon class="cls-2" points="367.08 70.79 360 70.79 360 63.81 345.99 63.81 345.99 70.79 338.91 70.79 338.91 77.9 331.84 77.9 331.84 70.79 324.63 70.79 324.63 63.81 310.62 63.81 310.62 70.79 303.54 70.79 303.54 63.81 289.39 63.81 289.39 134.65 303.54 134.65 303.54 85.01 310.62 85.01 310.62 77.9 317.69 77.9 317.69 84.88 324.76 84.88 324.76 134.65 338.91 134.65 338.91 85.01 345.99 85.01 345.99 77.9 352.93 77.9 352.93 85.01 360 85.01 360 134.65 374.15 134.65 374.15 77.9 367.08 77.9 367.08 70.79"/>
      <path class="cls-2" d="M434.41,42.49v28.31h-6.94v-6.98h-28.3v6.98h-7.07v7.11h-6.94v42.52h6.94v7.11h7.07v7.11h28.3v-7.11h6.94v7.11h14.15V42.49h-14.15ZM434.41,113.32h-6.94v7.11h-21.22v-7.11h-7.07v-28.31h7.07v-7.11h21.22v7.11h6.94v28.31Z"/>
    </g>
    <g>
      <path class="cls-1" d="M77.17,120.51c-1.05-1.09-1.58-2.96-1.58-5.59v-35.11h16.44v-12.49h-16.44v-18.8h-14.33v18.8h-11.7v12.49h11.7v36.56c0,6.14,1.47,10.72,4.41,13.74,2.94,3.02,7.6,4.54,14,4.54h13.15v-12.49h-9.99c-2.72,0-4.6-.55-5.65-1.64Z"/>
      <path class="cls-1" d="M154.88,121.36c-.7-.61-1.05-1.75-1.05-3.42v-26.96c0-7.98-2.46-14.05-7.36-18.21-4.91-4.16-11.83-6.25-20.78-6.25-5.7,0-10.67.88-14.92,2.63-4.25,1.75-7.67,4.21-10.26,7.36-2.59,3.16-4.1,6.93-4.54,11.31h13.94c.53-2.98,2.12-5.37,4.8-7.17,2.67-1.8,6.11-2.7,10.32-2.7,4.65,0,8.26,1.08,10.85,3.22,2.58,2.15,3.88,5.11,3.88,8.88v4.08h-16.96c-9.38,0-16.53,1.86-21.43,5.59-4.91,3.73-7.36,9.05-7.36,15.98,0,4.12,1.05,7.67,3.16,10.65,2.1,2.98,5.04,5.24,8.81,6.77,3.77,1.53,8.11,2.3,13.02,2.3,6.4,0,11.53-1.45,15.39-4.34,2.72-2.04,5-4.46,6.84-7.24.07,3.17.89,5.72,2.49,7.64,1.75,2.1,5.04,3.16,9.86,3.16h7.5v-12.36h-2.89c-1.49,0-2.59-.31-3.29-.92ZM139.76,107.03c0,3.42-.77,6.42-2.3,9.01-1.53,2.59-3.68,4.62-6.44,6.12-2.76,1.49-6.11,2.24-10.06,2.24s-6.9-.9-9.14-2.7c-2.24-1.8-3.35-4.1-3.35-6.9,0-3.42,1.18-5.96,3.55-7.63,2.37-1.66,5.74-2.5,10.13-2.5h17.62v2.37Z"/>
      <rect class="cls-1" x="165.53" y="42.6" width="14.2" height="92.05"/>
      <polygon class="cls-1" points="226.42 94.54 251.79 67.32 235.09 67.32 204.59 99.93 204.59 42.6 190.38 42.6 190.38 134.65 204.59 134.65 204.59 117.55 216.68 104.93 236.54 134.65 253.37 134.65 226.42 94.54"/>
    </g>
  </g>
</svg>