<?xml version="1.0" encoding="UTF-8"?>
<svg id="Livello_2" data-name="Livello 2" xmlns="http://www.w3.org/2000/svg" viewBox="0 0 1311.39 177.17">
  <defs>
    <style>
      .cls-1 {
        fill: #03e0cf;
      }

      .cls-2 {
        fill: #041917;
      }
    </style>
  </defs>
  <g id="Brand_Icon" data-name="Brand Icon">
    <rect class="cls-1" width="276.38" height="177.17"/>
    <g>
      <rect class="cls-2" x="42.51" y="120.43" width="14.15" height="14.22"/>
      <polygon class="cls-2" points="145.35 70.79 138.27 70.79 138.27 63.81 124.26 63.81 124.26 70.79 117.18 70.79 117.18 77.9 110.11 77.9 110.11 70.79 102.9 70.79 102.9 63.81 88.89 63.81 88.89 70.79 81.81 70.79 81.81 63.81 67.66 63.81 67.66 134.65 81.81 134.65 81.81 85.01 88.89 85.01 88.89 77.9 95.96 77.9 95.96 84.88 103.03 84.88 103.03 134.65 117.18 134.65 117.18 85.01 124.26 85.01 124.26 77.9 131.2 77.9 131.2 85.01 138.27 85.01 138.27 134.65 152.42 134.65 152.42 77.9 145.35 77.9 145.35 70.79"/>
      <path class="cls-2" d="M212.68,42.49v28.31h-6.94v-6.98h-28.3v6.98h-7.07v7.11h-6.94v42.52h6.94v7.11h7.07v7.11h28.3v-7.11h6.94v7.11h14.15V42.49h-14.15ZM212.68,113.32h-6.94v7.11h-21.22v-7.11h-7.07v-28.31h7.07v-7.11h21.22v7.11h6.94v28.31Z"/>
    </g>
  </g>
  <g id="Mantova_Dev" data-name="Mantova Dev">
    <g>
      <polygon class="cls-2" points="411.45 123.19 372.92 28.42 347.3 28.42 347.3 148.82 366.39 148.82 366.39 60.24 402.51 148.82 419.19 148.82 455.31 60.24 455.31 148.82 474.4 148.82 474.4 28.42 449.29 28.42 411.45 123.19"/>
      <path class="cls-2" d="M566.42,131.45c-.92-.8-1.38-2.29-1.38-4.47v-35.26c0-10.43-3.21-18.38-9.63-23.82-6.42-5.45-15.48-8.17-27.18-8.17-7.46,0-13.96,1.15-19.52,3.44-5.56,2.29-10.04,5.5-13.42,9.63-3.38,4.13-5.36,9.06-5.93,14.79h18.23c.69-3.9,2.78-7.02,6.28-9.37,3.5-2.35,8-3.53,13.5-3.53,6.08,0,10.81,1.41,14.19,4.21,3.38,2.81,5.07,6.68,5.07,11.61v5.33h-22.19c-12.27,0-21.62,2.44-28.04,7.31-6.42,4.88-9.63,11.84-9.63,20.9,0,5.39,1.38,10.04,4.13,13.93,2.75,3.9,6.59,6.85,11.52,8.86,4.93,2,10.6,3.01,17.03,3.01,8.37,0,15.08-1.89,20.12-5.68,3.56-2.67,6.53-5.83,8.95-9.47.09,4.14,1.16,7.48,3.26,9.99,2.29,2.75,6.59,4.13,12.9,4.13h9.8v-16.17h-3.78c-1.95,0-3.38-.4-4.3-1.2ZM546.64,112.7c0,4.47-1.01,8.4-3.01,11.78-2.01,3.38-4.82,6.05-8.43,8-3.61,1.95-8,2.92-13.16,2.92s-9.03-1.17-11.95-3.53c-2.92-2.35-4.39-5.36-4.39-9.03,0-4.47,1.55-7.8,4.64-9.98,3.1-2.18,7.51-3.27,13.24-3.27h23.05v3.1Z"/>
      <path class="cls-2" d="M644.6,63.59c-5.33-2.58-11.27-3.87-17.8-3.87-8.49,0-15.11,1.72-19.87,5.16-3.24,2.34-6,4.87-8.3,7.58l-2.1-11.71h-16.17v88.06h18.58v-44.38c0-5.96.95-11.09,2.84-15.39,1.89-4.3,4.58-7.6,8.08-9.89,3.5-2.29,7.71-3.44,12.64-3.44,6.99,0,12.24,2.18,15.74,6.54,3.5,4.36,5.25,10.72,5.25,19.09v47.47h18.75v-49.02c0-9.86-1.61-17.72-4.82-23.56-3.21-5.85-7.48-10.06-12.81-12.64Z"/>
      <path class="cls-2" d="M701.96,130.33c-1.38-1.43-2.06-3.87-2.06-7.31v-45.92h21.5v-16.34h-21.5v-24.6h-18.75v24.6h-15.31v16.34h15.31v47.82c0,8.03,1.92,14.02,5.76,17.97,3.84,3.96,9.95,5.93,18.32,5.93h17.2v-16.34h-13.07c-3.56,0-6.02-.71-7.4-2.15Z"/>
      <path class="cls-2" d="M791.74,65.4c-6.77-3.78-14.62-5.68-23.56-5.68s-16.66,1.89-23.48,5.68c-6.82,3.78-12.1,9.06-15.82,15.82-3.73,6.77-5.59,14.62-5.59,23.56s1.86,16.8,5.59,23.56c3.73,6.77,9,12.04,15.82,15.82,6.82,3.78,14.65,5.68,23.48,5.68s16.8-1.89,23.56-5.68c6.76-3.78,12.01-9.06,15.74-15.82,3.73-6.76,5.59-14.62,5.59-23.56s-1.86-16.8-5.59-23.56c-3.73-6.76-8.97-12.04-15.74-15.82ZM790.88,119.84c-2.18,4.42-5.19,7.89-9.03,10.41-3.84,2.52-8.4,3.78-13.67,3.78s-9.83-1.26-13.67-3.78c-3.84-2.52-6.82-5.99-8.94-10.41-2.12-4.41-3.18-9.43-3.18-15.05s1.06-10.78,3.18-15.14c2.12-4.36,5.1-7.8,8.94-10.32,3.84-2.52,8.4-3.78,13.67-3.78s9.83,1.26,13.67,3.78c3.84,2.52,6.85,5.96,9.03,10.32,2.18,4.36,3.27,9.4,3.27,15.14s-1.09,10.64-3.27,15.05Z"/>
      <polygon class="cls-2" points="879.63 60.76 855.73 128.87 831.47 60.76 811.52 60.76 844.03 148.82 866.73 148.82 899.24 60.76 879.63 60.76"/>
      <path class="cls-2" d="M978.02,131.45c-.92-.8-1.38-2.29-1.38-4.47v-35.26c0-10.43-3.21-18.38-9.63-23.82-6.42-5.45-15.48-8.17-27.18-8.17-7.46,0-13.96,1.15-19.52,3.44-5.56,2.29-10.04,5.5-13.42,9.63-3.38,4.13-5.36,9.06-5.93,14.79h18.23c.69-3.9,2.78-7.02,6.28-9.37,3.5-2.35,8-3.53,13.5-3.53,6.08,0,10.81,1.41,14.19,4.21,3.38,2.81,5.07,6.68,5.07,11.61v5.33h-22.19c-12.27,0-21.62,2.44-28.04,7.31-6.42,4.88-9.63,11.84-9.63,20.9,0,5.39,1.38,10.04,4.13,13.93,2.75,3.9,6.59,6.85,11.52,8.86,4.93,2,10.6,3.01,17.03,3.01,8.37,0,15.08-1.89,20.12-5.68,3.56-2.67,6.54-5.83,8.95-9.47.09,4.14,1.16,7.48,3.26,9.99,2.29,2.75,6.59,4.13,12.9,4.13h9.8v-16.17h-3.78c-1.95,0-3.38-.4-4.3-1.2ZM958.24,112.7c0,4.47-1.01,8.4-3.01,11.78-2.01,3.38-4.82,6.05-8.43,8-3.61,1.95-8,2.92-13.16,2.92s-9.03-1.17-11.95-3.53c-2.92-2.35-4.39-5.36-4.39-9.03,0-4.47,1.55-7.8,4.64-9.98,3.1-2.18,7.51-3.27,13.24-3.27h23.05v3.1Z"/>
      <path class="cls-2" d="M1102.15,35.99c-9.12-5.04-19.98-7.57-32.59-7.57h-40.94v120.4h40.94c12.61,0,23.48-2.55,32.59-7.65,9.12-5.1,16.19-12.15,21.24-21.16,5.04-9,7.57-19.52,7.57-31.56s-2.52-22.39-7.57-31.39c-5.05-9-12.13-16.02-21.24-21.07ZM1105.93,111.07c-3.15,6.48-7.8,11.52-13.93,15.14-6.14,3.61-13.62,5.42-22.45,5.42h-21.16V45.62h21.16c8.83,0,16.31,1.78,22.45,5.33,6.13,3.56,10.78,8.54,13.93,14.96,3.15,6.42,4.73,13.93,4.73,22.53s-1.58,16.14-4.73,22.62Z"/>
      <path class="cls-2" d="M1204.49,64.8c-6.36-3.38-13.79-5.07-22.27-5.07s-16.17,1.89-22.7,5.68c-6.54,3.78-11.61,9.06-15.22,15.82-3.61,6.77-5.42,14.68-5.42,23.74s1.83,16.8,5.5,23.56c3.67,6.77,8.88,12.01,15.65,15.74,6.76,3.73,14.73,5.59,23.91,5.59,7.34,0,13.79-1.35,19.35-4.04,5.56-2.69,10.09-6.36,13.59-11.01,3.5-4.64,5.76-9.83,6.79-15.57h-18.58c-1.26,4.82-3.87,8.6-7.83,11.35s-8.75,4.13-14.36,4.13c-4.82,0-9.06-1.03-12.73-3.1-3.67-2.06-6.51-4.96-8.51-8.69-2.01-3.73-3.13-8.05-3.35-12.99v-1.2h66.39c.11-1.14.23-2.32.34-3.53.11-1.2.17-2.38.17-3.53-.23-8.6-2.15-16.05-5.76-22.36-3.61-6.3-8.6-11.15-14.96-14.53ZM1159,95.16c.46-4.24,1.81-7.88,4.04-10.92,2.24-3.04,5.04-5.39,8.43-7.05,3.38-1.66,7.02-2.49,10.92-2.49,6.54,0,11.9,1.78,16.08,5.33,4.18,3.56,6.68,8.6,7.48,15.14h-46.96Z"/>
      <polygon class="cls-2" points="1291.78 60.76 1267.87 128.87 1243.62 60.76 1223.67 60.76 1256.18 148.82 1278.88 148.82 1311.39 60.76 1291.78 60.76"/>
    </g>
  </g>
</svg>