<?xml version="1.0" encoding="UTF-8"?>
<svg id="Livello_2" data-name="Livello 2" xmlns="http://www.w3.org/2000/svg" viewBox="0 0 969.04 438.21">
  <defs>
    <style>
      .cls-1 {
        fill: #03e0cf;
      }

      .cls-2 {
        fill: #041917;
      }
    </style>
  </defs>
  <g id="Brand_Icon" data-name="Brand Icon">
    <rect class="cls-1" x="346.33" width="276.38" height="177.17"/>
    <g>
      <rect class="cls-2" x="388.85" y="120.43" width="14.15" height="14.22"/>
      <polygon class="cls-2" points="491.68 70.79 484.61 70.79 484.61 63.81 470.59 63.81 470.59 70.79 463.51 70.79 463.51 77.9 456.44 77.9 456.44 70.79 449.23 70.79 449.23 63.81 435.22 63.81 435.22 70.79 428.14 70.79 428.14 63.81 414 63.81 414 134.65 428.14 134.65 428.14 85.01 435.22 85.01 435.22 77.9 442.29 77.9 442.29 84.88 449.37 84.88 449.37 134.65 463.51 134.65 463.51 85.01 470.59 85.01 470.59 77.9 477.53 77.9 477.53 85.01 484.61 85.01 484.61 134.65 498.75 134.65 498.75 77.9 491.68 77.9 491.68 70.79"/>
      <path class="cls-2" d="M559.01,42.49v28.31h-6.94v-6.98h-28.3v6.98h-7.07v7.11h-6.94v42.52h6.94v7.11h7.07v7.11h28.3v-7.11h6.94v7.11h14.15V42.49h-14.15ZM559.01,113.32h-6.94v7.11h-21.22v-7.11h-7.07v-28.31h7.07v-7.11h21.22v7.11h6.94v28.31Z"/>
    </g>
  </g>
  <g id="Mantova_Dev" data-name="Mantova Dev">
    <g>
      <polygon class="cls-2" points="64.16 342.88 25.63 248.1 0 248.1 0 368.5 19.09 368.5 19.09 279.92 55.21 368.5 71.9 368.5 108.02 279.92 108.02 368.5 127.11 368.5 127.11 248.1 102 248.1 64.16 342.88"/>
      <path class="cls-2" d="M219.13,351.13c-.92-.8-1.38-2.29-1.38-4.47v-35.26c0-10.43-3.21-18.38-9.63-23.82-6.42-5.45-15.48-8.17-27.18-8.17-7.46,0-13.96,1.15-19.52,3.44-5.56,2.29-10.04,5.5-13.42,9.63-3.38,4.13-5.36,9.06-5.93,14.79h18.23c.69-3.9,2.78-7.02,6.28-9.37,3.5-2.35,8-3.53,13.5-3.53,6.08,0,10.81,1.4,14.19,4.21,3.38,2.81,5.07,6.68,5.07,11.61v5.33h-22.19c-12.27,0-21.62,2.44-28.04,7.31-6.42,4.88-9.63,11.84-9.63,20.9,0,5.39,1.38,10.04,4.13,13.93,2.75,3.9,6.59,6.85,11.52,8.86,4.93,2,10.6,3.01,17.03,3.01,8.37,0,15.08-1.89,20.12-5.68,3.56-2.67,6.53-5.83,8.95-9.47.09,4.14,1.16,7.48,3.26,9.99,2.29,2.75,6.59,4.13,12.9,4.13h9.8v-16.17h-3.78c-1.95,0-3.38-.4-4.3-1.2ZM199.35,332.39c0,4.47-1.01,8.4-3.01,11.78-2.01,3.38-4.82,6.05-8.43,8-3.61,1.95-8,2.92-13.16,2.92s-9.03-1.17-11.95-3.53c-2.92-2.35-4.39-5.36-4.39-9.03,0-4.47,1.55-7.8,4.64-9.98,3.1-2.18,7.51-3.27,13.24-3.27h23.05v3.1Z"/>
      <path class="cls-2" d="M297.3,283.28c-5.33-2.58-11.27-3.87-17.8-3.87-8.49,0-15.11,1.72-19.87,5.16-3.24,2.34-6,4.87-8.3,7.58l-2.1-11.71h-16.17v88.06h18.58v-44.38c0-5.96.95-11.09,2.84-15.39,1.89-4.3,4.58-7.6,8.08-9.89,3.5-2.29,7.71-3.44,12.64-3.44,6.99,0,12.24,2.18,15.74,6.54,3.5,4.36,5.25,10.72,5.25,19.09v47.47h18.75v-49.02c0-9.86-1.61-17.72-4.82-23.56-3.21-5.85-7.48-10.06-12.81-12.64Z"/>
      <path class="cls-2" d="M354.66,350.01c-1.38-1.43-2.06-3.87-2.06-7.31v-45.92h21.5v-16.34h-21.5v-24.6h-18.75v24.6h-15.31v16.34h15.31v47.81c0,8.03,1.92,14.02,5.76,17.97,3.84,3.96,9.95,5.93,18.32,5.93h17.2v-16.34h-13.07c-3.56,0-6.02-.71-7.4-2.15Z"/>
      <path class="cls-2" d="M444.44,285.08c-6.77-3.78-14.62-5.68-23.56-5.68s-16.66,1.89-23.48,5.68c-6.82,3.79-12.1,9.06-15.82,15.82-3.73,6.77-5.59,14.62-5.59,23.56s1.86,16.8,5.59,23.56c3.73,6.77,9,12.04,15.82,15.82,6.82,3.78,14.65,5.68,23.48,5.68s16.8-1.89,23.56-5.68c6.76-3.79,12.01-9.06,15.74-15.82,3.73-6.77,5.59-14.62,5.59-23.56s-1.86-16.8-5.59-23.56c-3.73-6.76-8.97-12.04-15.74-15.82ZM443.58,339.52c-2.18,4.42-5.19,7.89-9.03,10.41-3.84,2.52-8.4,3.79-13.67,3.79s-9.83-1.26-13.67-3.79c-3.84-2.52-6.82-5.99-8.94-10.41-2.12-4.41-3.18-9.43-3.18-15.05s1.06-10.78,3.18-15.14c2.12-4.36,5.1-7.8,8.94-10.32,3.84-2.52,8.4-3.78,13.67-3.78s9.83,1.26,13.67,3.78c3.84,2.52,6.85,5.96,9.03,10.32,2.18,4.36,3.27,9.4,3.27,15.14s-1.09,10.64-3.27,15.05Z"/>
      <polygon class="cls-2" points="532.34 280.44 508.43 348.55 484.18 280.44 464.23 280.44 496.73 368.5 519.44 368.5 551.95 280.44 532.34 280.44"/>
      <path class="cls-2" d="M630.72,351.13c-.92-.8-1.38-2.29-1.38-4.47v-35.26c0-10.43-3.21-18.38-9.63-23.82-6.42-5.45-15.48-8.17-27.18-8.17-7.46,0-13.96,1.15-19.52,3.44-5.56,2.29-10.04,5.5-13.42,9.63-3.38,4.13-5.36,9.06-5.93,14.79h18.23c.69-3.9,2.78-7.02,6.28-9.37,3.5-2.35,8-3.53,13.5-3.53,6.08,0,10.81,1.4,14.19,4.21,3.38,2.81,5.07,6.68,5.07,11.61v5.33h-22.19c-12.27,0-21.62,2.44-28.04,7.31-6.42,4.88-9.63,11.84-9.63,20.9,0,5.39,1.38,10.04,4.13,13.93,2.75,3.9,6.59,6.85,11.52,8.86,4.93,2,10.6,3.01,17.03,3.01,8.37,0,15.08-1.89,20.12-5.68,3.56-2.67,6.53-5.83,8.95-9.47.09,4.14,1.16,7.48,3.26,9.99,2.29,2.75,6.59,4.13,12.9,4.13h9.8v-16.17h-3.78c-1.95,0-3.38-.4-4.3-1.2ZM610.94,332.39c0,4.47-1.01,8.4-3.01,11.78-2.01,3.38-4.82,6.05-8.43,8-3.61,1.95-8,2.92-13.16,2.92s-9.03-1.17-11.95-3.53c-2.92-2.35-4.39-5.36-4.39-9.03,0-4.47,1.55-7.8,4.64-9.98,3.1-2.18,7.51-3.27,13.24-3.27h23.05v3.1Z"/>
      <path class="cls-2" d="M759.81,255.67c-9.12-5.04-19.98-7.57-32.59-7.57h-40.94v120.4h40.94c12.61,0,23.48-2.55,32.59-7.65,9.12-5.1,16.19-12.15,21.24-21.15,5.04-9,7.57-19.52,7.57-31.56s-2.52-22.39-7.57-31.39c-5.05-9-12.13-16.02-21.24-21.07ZM763.59,330.75c-3.15,6.48-7.8,11.52-13.93,15.14-6.14,3.61-13.62,5.42-22.45,5.42h-21.16v-86h21.16c8.83,0,16.31,1.78,22.45,5.33,6.13,3.55,10.78,8.54,13.93,14.96,3.15,6.42,4.73,13.93,4.73,22.53s-1.58,16.14-4.73,22.62Z"/>
      <path class="cls-2" d="M862.15,284.48c-6.36-3.38-13.79-5.07-22.27-5.07s-16.17,1.89-22.7,5.68c-6.54,3.79-11.61,9.06-15.22,15.82-3.61,6.77-5.42,14.68-5.42,23.74s1.83,16.8,5.5,23.56c3.67,6.77,8.88,12.01,15.65,15.74,6.76,3.73,14.73,5.59,23.91,5.59,7.34,0,13.79-1.35,19.35-4.04,5.56-2.69,10.09-6.36,13.59-11.01,3.5-4.64,5.76-9.83,6.79-15.57h-18.58c-1.26,4.82-3.87,8.6-7.83,11.35s-8.75,4.13-14.36,4.13c-4.82,0-9.06-1.03-12.73-3.1-3.67-2.06-6.51-4.96-8.51-8.69-2.01-3.73-3.13-8.05-3.35-12.99v-1.21h66.39c.11-1.14.23-2.32.34-3.53.11-1.2.17-2.38.17-3.53-.23-8.6-2.15-16.05-5.76-22.36-3.61-6.3-8.6-11.15-14.96-14.53ZM816.65,314.84c.46-4.24,1.81-7.88,4.04-10.92,2.24-3.04,5.04-5.39,8.43-7.05,3.38-1.66,7.02-2.49,10.92-2.49,6.54,0,11.9,1.78,16.08,5.33,4.18,3.55,6.68,8.6,7.48,15.13h-46.96Z"/>
      <polygon class="cls-2" points="949.44 280.44 925.53 348.55 901.28 280.44 881.32 280.44 913.83 368.5 936.54 368.5 969.04 280.44 949.44 280.44"/>
    </g>
  </g>
  <g id="Payoff">
    <g>
      <polygon class="cls-2" points="3.99 396.94 0 396.94 0 429.04 18.62 429.04 18.62 425.37 3.99 425.37 3.99 396.94"/>
      <path class="cls-2" d="M39.57,425.28c-.25-.21-.37-.63-.37-1.24v-10.22c0-2.72-.82-4.81-2.45-6.26-1.64-1.45-3.95-2.18-6.95-2.18-1.86,0-3.51.29-4.93.87s-2.56,1.41-3.42,2.5c-.86,1.09-1.38,2.39-1.56,3.92h3.76c.24-1.19.89-2.15,1.93-2.87,1.04-.72,2.38-1.08,4.04-1.08,1.83,0,3.26.43,4.29,1.28,1.02.86,1.54,2.05,1.54,3.58v1.6h-6.88c-3.06,0-5.39.63-6.99,1.88-1.6,1.25-2.41,3.06-2.41,5.41,0,1.41.36,2.62,1.08,3.65.72,1.02,1.73,1.81,3.03,2.36,1.3.55,2.8.83,4.52.83,2.26,0,4.04-.48,5.34-1.44,1.02-.76,1.85-1.6,2.51-2.52.03,1.06.28,1.92.79,2.57.6.75,1.73,1.12,3.42,1.12h2.06v-3.44h-1.19c-.52,0-.9-.11-1.15-.32ZM35.44,419.5c0,1.28-.29,2.42-.87,3.42-.58.99-1.42,1.77-2.52,2.34-1.1.57-2.43.85-3.99.85s-2.8-.36-3.71-1.08c-.92-.72-1.38-1.64-1.38-2.77,0-1.34.45-2.33,1.35-2.96.9-.63,2.19-.94,3.87-.94h7.24v1.15Z"/>
      <path class="cls-2" d="M60.61,424.98c-.4-.41-.6-1.11-.6-2.09v-13.8h6.05v-3.44h-6.05v-6.56h-3.76v6.56h-4.22v3.44h4.22v13.85c0,2.05.46,3.58,1.38,4.58s2.49,1.51,4.72,1.51h4.08v-3.44h-3.71c-1.01,0-1.71-.21-2.11-.62Z"/>
      <path class="cls-2" d="M83.65,406.71c-1.64-.89-3.55-1.33-5.75-1.33s-4.13.5-5.8,1.51c-1.67,1.01-2.97,2.41-3.9,4.2-.93,1.79-1.4,3.87-1.4,6.26s.48,4.47,1.44,6.26,2.32,3.19,4.06,4.2c1.74,1.01,3.77,1.51,6.1,1.51,1.8,0,3.42-.35,4.84-1.05s2.59-1.67,3.51-2.89,1.53-2.61,1.83-4.17h-3.81c-.4,1.5-1.19,2.67-2.38,3.51-1.19.84-2.61,1.26-4.26,1.26-1.47,0-2.75-.32-3.85-.96-1.1-.64-1.95-1.54-2.54-2.68-.6-1.15-.93-2.45-.99-3.92v-.32h18.16c.03-.28.05-.55.07-.83.02-.28.02-.54.02-.78-.06-2.32-.56-4.31-1.49-5.96-.93-1.65-2.22-2.92-3.85-3.81ZM70.98,414.96c.12-1.28.52-2.39,1.19-3.32.67-.93,1.52-1.66,2.54-2.18,1.02-.52,2.1-.78,3.23-.78,1.96,0,3.57.54,4.84,1.63,1.27,1.08,1.99,2.64,2.18,4.65h-13.98Z"/>
      <path class="cls-2" d="M98.76,409.83c1.13-.73,2.45-1.1,3.94-1.1,1.71,0,3.12.44,4.24,1.33s1.84,2.11,2.18,3.67h3.94c-.49-2.57-1.61-4.6-3.37-6.1-1.76-1.5-4.07-2.25-6.95-2.25-2.26,0-4.25.5-5.96,1.51s-3.05,2.42-4.01,4.22c-.96,1.8-1.44,3.9-1.44,6.28s.47,4.52,1.4,6.3c.93,1.79,2.25,3.17,3.97,4.15,1.71.98,3.7,1.47,5.96,1.47,2.84,0,5.17-.75,6.99-2.25,1.82-1.5,2.96-3.5,3.42-6.01h-3.99c-.37,1.5-1.1,2.69-2.2,3.58-1.1.89-2.49,1.33-4.17,1.33-1.5,0-2.81-.36-3.94-1.08-1.13-.72-2.01-1.73-2.64-3.03-.63-1.3-.94-2.79-.94-4.47s.31-3.22.94-4.52c.63-1.3,1.5-2.32,2.64-3.05Z"/>
      <path class="cls-2" d="M132.28,406.43c-1.44-.7-3.03-1.05-4.77-1.05-1.47,0-2.74.24-3.81.71-1.07.47-1.96,1.09-2.66,1.83-.49.52-.88,1.07-1.24,1.64v-12.62h-3.76v32.09h3.76v-11.69c0-1.74.28-3.26.85-4.54.57-1.28,1.38-2.27,2.43-2.96,1.05-.69,2.32-1.03,3.78-1.03,2.02,0,3.58.63,4.7,1.88,1.12,1.25,1.67,3.1,1.67,5.55v12.79h3.76v-13.02c0-2.6-.43-4.67-1.28-6.21-.86-1.54-2-2.67-3.44-3.37Z"/>
      <path class="cls-2" d="M158.14,409.83c1.13-.73,2.45-1.1,3.94-1.1,1.71,0,3.12.44,4.24,1.33s1.84,2.11,2.18,3.67h3.94c-.49-2.57-1.61-4.6-3.37-6.1-1.76-1.5-4.07-2.25-6.95-2.25-2.26,0-4.25.5-5.96,1.51s-3.05,2.42-4.01,4.22c-.96,1.8-1.44,3.9-1.44,6.28s.47,4.52,1.4,6.3c.93,1.79,2.25,3.17,3.97,4.15,1.71.98,3.7,1.47,5.96,1.47,2.84,0,5.17-.75,6.99-2.25,1.82-1.5,2.96-3.5,3.42-6.01h-3.99c-.37,1.5-1.1,2.69-2.2,3.58-1.1.89-2.49,1.33-4.17,1.33-1.5,0-2.81-.36-3.94-1.08-1.13-.72-2.01-1.73-2.64-3.03-.63-1.3-.94-2.79-.94-4.47s.31-3.22.94-4.52c.63-1.3,1.5-2.32,2.64-3.05Z"/>
      <path class="cls-2" d="M192.25,406.89c-1.74-1.01-3.76-1.51-6.05-1.51s-4.27.5-6.03,1.51c-1.76,1.01-3.13,2.41-4.1,4.2-.98,1.79-1.47,3.87-1.47,6.26s.49,4.43,1.47,6.24c.98,1.8,2.35,3.21,4.1,4.22,1.76,1.01,3.77,1.51,6.03,1.51s4.31-.5,6.05-1.51,3.1-2.41,4.08-4.22c.98-1.8,1.47-3.88,1.47-6.24s-.49-4.47-1.47-6.26c-.98-1.79-2.34-3.19-4.08-4.2ZM192.98,421.77c-.64,1.3-1.54,2.32-2.71,3.07s-2.52,1.12-4.08,1.12-2.92-.37-4.08-1.12c-1.16-.75-2.06-1.77-2.71-3.07-.64-1.3-.96-2.77-.96-4.42s.32-3.16.96-4.45,1.54-2.3,2.71-3.05c1.16-.75,2.52-1.12,4.08-1.12s2.92.38,4.08,1.12c1.16.75,2.06,1.77,2.71,3.05s.96,2.77.96,4.45-.32,3.12-.96,4.42Z"/>
      <path class="cls-2" d="M231.49,406.39c-1.35-.67-2.83-1.01-4.45-1.01-2.32,0-4.17.52-5.52,1.56-1.08.82-1.93,1.8-2.58,2.92-.32-.77-.73-1.44-1.25-2-.76-.83-1.67-1.44-2.73-1.86-1.05-.41-2.19-.62-3.42-.62-1.38,0-2.54.22-3.48.66-.95.44-1.72.99-2.32,1.63-.39.41-.71.82-1.02,1.22l-.52-3.24h-3.26v23.38h3.76v-12.33c0-1.56.25-2.93.76-4.13s1.21-2.12,2.13-2.77c.92-.66,2.02-.99,3.3-.99,1.8,0,3.19.59,4.17,1.76.98,1.18,1.47,2.91,1.47,5.2v13.25h3.76v-12.52c0-2.38.56-4.26,1.67-5.64,1.12-1.38,2.65-2.06,4.61-2.06,1.77,0,3.14.59,4.1,1.76.96,1.18,1.44,2.91,1.44,5.2v13.25h3.76v-13.48c0-2.48-.4-4.46-1.19-5.94s-1.86-2.56-3.21-3.23Z"/>
      <path class="cls-2" d="M270.1,406.39c-1.35-.67-2.83-1.01-4.45-1.01-2.32,0-4.17.52-5.52,1.56-1.08.82-1.93,1.8-2.58,2.92-.32-.77-.73-1.44-1.25-2-.76-.83-1.67-1.44-2.73-1.86-1.05-.41-2.19-.62-3.42-.62-1.38,0-2.54.22-3.48.66-.95.44-1.72.99-2.32,1.63-.39.41-.71.82-1.02,1.22l-.52-3.24h-3.26v23.38h3.76v-12.33c0-1.56.25-2.93.76-4.13s1.21-2.12,2.13-2.77c.92-.66,2.02-.99,3.3-.99,1.8,0,3.19.59,4.17,1.76.98,1.18,1.47,2.91,1.47,5.2v13.25h3.76v-12.52c0-2.38.56-4.26,1.67-5.64,1.12-1.38,2.65-2.06,4.61-2.06,1.77,0,3.14.59,4.1,1.76.96,1.18,1.44,2.91,1.44,5.2v13.25h3.76v-13.48c0-2.48-.4-4.46-1.19-5.94s-1.86-2.56-3.21-3.23Z"/>
      <path class="cls-2" d="M294.54,417.35c0,1.74-.27,3.25-.83,4.54-.55,1.28-1.33,2.27-2.34,2.96s-2.23,1.03-3.67,1.03c-1.96,0-3.46-.63-4.52-1.9-1.05-1.27-1.58-3.11-1.58-5.53v-12.79h-3.76v13.02c0,1.93.24,3.57.71,4.93.47,1.36,1.13,2.46,1.97,3.3.84.84,1.82,1.45,2.93,1.83,1.12.38,2.32.57,3.6.57,2.17,0,3.88-.44,5.14-1.31.96-.66,1.73-1.36,2.33-2.09l.51,3.12h3.26v-23.38h-3.76v11.69Z"/>
      <path class="cls-2" d="M318.54,406.43c-1.42-.7-3.02-1.05-4.79-1.05-2.23,0-4,.44-5.3,1.33-.99.68-1.79,1.39-2.4,2.14l-.51-3.19h-3.26v23.38h3.76v-11.69c0-1.74.28-3.26.85-4.54.57-1.28,1.38-2.27,2.43-2.96,1.05-.69,2.32-1.03,3.78-1.03,2.05,0,3.61.63,4.7,1.88,1.08,1.25,1.63,3.1,1.63,5.55v12.79h3.76v-13.02c0-2.6-.42-4.67-1.26-6.21-.84-1.54-1.97-2.67-3.39-3.37Z"/>
      <rect class="cls-2" x="326.86" y="405.65" width="3.76" height="23.38"/>
      <path class="cls-2" d="M328.79,396.85c-.67,0-1.25.23-1.72.69-.47.46-.71,1.04-.71,1.74s.24,1.28.71,1.74c.47.46,1.05.69,1.72.69s1.28-.23,1.74-.69c.46-.46.69-1.04.69-1.74s-.23-1.28-.69-1.74c-.46-.46-1.04-.69-1.74-.69Z"/>
      <path class="cls-2" d="M340.71,424.98c-.4-.41-.6-1.11-.6-2.09v-13.8h6.05v-3.44h-6.05v-6.56h-3.76v6.56h-4.22v3.44h4.22v13.85c0,2.05.46,3.58,1.38,4.58s2.49,1.51,4.72,1.51h4.08v-3.44h-3.71c-1.01,0-1.71-.21-2.11-.62Z"/>
      <path class="cls-2" d="M357.49,424.32l-7.2-18.66h-3.99l9.12,23.52-1.15,2.84c-.27.73-.54,1.3-.78,1.7-.25.4-.56.67-.94.83-.38.15-.94.23-1.67.23h-3.35v3.44h4.49c1.1,0,1.97-.18,2.61-.53.64-.35,1.18-.91,1.63-1.67.44-.76.91-1.77,1.4-3.03l10.77-27.33h-3.99l-6.97,18.66Z"/>
      <path class="cls-2" d="M398.52,406.78c-1.68-.93-3.61-1.4-5.78-1.4s-3.99.49-5.36,1.47c-1.09.77-1.97,1.64-2.66,2.59l-.51-3.78h-3.26v32.55h3.76v-12.76c.62.96,1.47,1.8,2.59,2.51,1.42.9,3.23,1.35,5.43,1.35s4.1-.5,5.78-1.51c1.68-1.01,3.01-2.41,3.99-4.2.98-1.79,1.47-3.87,1.47-6.26,0-2.54-.49-4.7-1.47-6.49-.98-1.79-2.31-3.15-3.99-4.08ZM399.16,421.82c-.64,1.3-1.54,2.32-2.71,3.05-1.16.73-2.52,1.1-4.08,1.1s-2.87-.37-4.04-1.1c-1.16-.73-2.06-1.76-2.71-3.07-.64-1.31-.96-2.83-.96-4.54s.32-3.16.96-4.42c.64-1.27,1.54-2.27,2.71-3s2.51-1.1,4.04-1.1,2.92.37,4.08,1.1c1.16.73,2.06,1.74,2.71,3.03.64,1.28.96,2.78.96,4.49s-.32,3.17-.96,4.47Z"/>
      <path class="cls-2" d="M423.17,406.71c-1.64-.89-3.55-1.33-5.75-1.33s-4.13.5-5.8,1.51c-1.67,1.01-2.97,2.41-3.9,4.2-.93,1.79-1.4,3.87-1.4,6.26s.48,4.47,1.44,6.26,2.32,3.19,4.06,4.2c1.74,1.01,3.77,1.51,6.1,1.51,1.8,0,3.42-.35,4.84-1.05s2.59-1.67,3.51-2.89,1.53-2.61,1.83-4.17h-3.81c-.4,1.5-1.19,2.67-2.38,3.51-1.19.84-2.61,1.26-4.26,1.26-1.47,0-2.75-.32-3.85-.96-1.1-.64-1.95-1.54-2.54-2.68-.6-1.15-.93-2.45-.99-3.92v-.32h18.16c.03-.28.05-.55.07-.83.02-.28.02-.54.02-.78-.06-2.32-.56-4.31-1.49-5.96-.93-1.65-2.22-2.92-3.85-3.81ZM410.49,414.96c.12-1.28.52-2.39,1.19-3.32.67-.93,1.52-1.66,2.54-2.18,1.02-.52,2.1-.78,3.23-.78,1.96,0,3.57.54,4.84,1.63,1.27,1.08,1.99,2.64,2.18,4.65h-13.98Z"/>
      <path class="cls-2" d="M438.69,406.3c-.98.43-1.74.97-2.29,1.63-.37.44-.68.88-.96,1.33l-.5-3.6h-3.26v23.38h3.76v-11.92c0-1.25.18-2.48.53-3.67.35-1.19.99-2.18,1.9-2.96.92-.78,2.19-1.17,3.81-1.17h1.88v-3.67h-1.05c-1.56,0-2.83.21-3.81.64Z"/>
      <path class="cls-2" d="M470.48,416.34c-1.45-.4-3.06-.7-4.84-.92-1.13-.15-2.14-.31-3.03-.48-.89-.17-1.58-.47-2.09-.89-.5-.43-.76-1.07-.76-1.93,0-1.07.5-1.93,1.51-2.57s2.32-.96,3.94-.96,2.94.4,3.97,1.19c1.02.79,1.6,1.79,1.72,2.98h3.85c-.18-2.45-1.15-4.28-2.91-5.5-1.76-1.22-3.97-1.85-6.62-1.88-1.74-.03-3.31.24-4.7.83-1.39.58-2.48,1.4-3.28,2.45-.8,1.05-1.19,2.3-1.19,3.74,0,1.22.24,2.22.73,3,.49.78,1.16,1.4,2.02,1.86.86.46,1.85.82,2.98,1.08,1.13.26,2.35.47,3.67.62,1.16.12,2.2.28,3.12.46.92.18,1.64.5,2.16.96.52.46.78,1.18.78,2.16,0,.7-.25,1.33-.73,1.88-.49.55-1.15.97-1.99,1.26-.84.29-1.81.44-2.91.44-1.96,0-3.51-.45-4.65-1.35-1.15-.9-1.75-2.04-1.81-3.42h-3.85c.06,2.57,1.04,4.54,2.93,5.92,1.9,1.38,4.36,2.06,7.38,2.06,1.74,0,3.32-.28,4.72-.85,1.41-.57,2.53-1.38,3.37-2.45.84-1.07,1.26-2.32,1.26-3.76,0-1.74-.43-3.06-1.28-3.97-.86-.9-2.01-1.55-3.46-1.95Z"/>
      <polygon class="cls-2" points="486.78 424.77 479.72 405.65 475.69 405.65 484.44 429.04 488.98 429.04 497.74 405.65 493.8 405.65 486.78 424.77"/>
      <path class="cls-2" d="M501.32,396.85c-.67,0-1.25.23-1.72.69-.47.46-.71,1.04-.71,1.74s.24,1.28.71,1.74c.47.46,1.05.69,1.72.69s1.28-.23,1.74-.69c.46-.46.69-1.04.69-1.74s-.23-1.28-.69-1.74c-.46-.46-1.04-.69-1.74-.69Z"/>
      <rect class="cls-2" x="499.39" y="405.65" width="3.76" height="23.38"/>
      <rect class="cls-2" x="507.14" y="396.94" width="3.76" height="32.09"/>
      <path class="cls-2" d="M531.26,417.35c0,1.74-.27,3.25-.83,4.54-.55,1.28-1.33,2.27-2.34,2.96s-2.23,1.03-3.67,1.03c-1.96,0-3.46-.63-4.52-1.9-1.05-1.27-1.58-3.11-1.58-5.53v-12.79h-3.76v13.02c0,1.93.24,3.57.71,4.93.47,1.36,1.13,2.46,1.97,3.3.84.84,1.82,1.45,2.93,1.83,1.12.38,2.32.57,3.6.57,2.17,0,3.88-.44,5.14-1.31.96-.66,1.73-1.36,2.33-2.09l.51,3.12h3.26v-23.38h-3.76v11.69Z"/>
      <path class="cls-2" d="M556.56,406.78c-1.68-.93-3.61-1.4-5.78-1.4s-3.99.49-5.36,1.47c-1.09.77-1.97,1.64-2.66,2.59l-.51-3.78h-3.26v32.55h3.76v-12.76c.62.96,1.47,1.8,2.59,2.51,1.42.9,3.23,1.35,5.43,1.35s4.1-.5,5.78-1.51c1.68-1.01,3.01-2.41,3.99-4.2.98-1.79,1.47-3.87,1.47-6.26,0-2.54-.49-4.7-1.47-6.49-.98-1.79-2.31-3.15-3.99-4.08ZM557.21,421.82c-.64,1.3-1.54,2.32-2.71,3.05-1.16.73-2.52,1.1-4.08,1.1s-2.87-.37-4.04-1.1c-1.16-.73-2.06-1.76-2.71-3.07-.64-1.31-.96-2.83-.96-4.54s.32-3.16.96-4.42c.64-1.27,1.54-2.27,2.71-3s2.51-1.1,4.04-1.1,2.92.37,4.08,1.1c1.16.73,2.06,1.74,2.71,3.03.64,1.28.96,2.78.96,4.49s-.32,3.17-.96,4.47Z"/>
      <path class="cls-2" d="M582.74,406.78c-1.68-.93-3.61-1.4-5.78-1.4s-3.99.49-5.36,1.47c-1.09.77-1.97,1.64-2.66,2.59l-.51-3.78h-3.26v32.55h3.76v-12.76c.62.96,1.47,1.8,2.59,2.51,1.42.9,3.23,1.35,5.43,1.35s4.1-.5,5.78-1.51c1.68-1.01,3.01-2.41,3.99-4.2.98-1.79,1.47-3.87,1.47-6.26,0-2.54-.49-4.7-1.47-6.49-.98-1.79-2.31-3.15-3.99-4.08ZM583.39,421.82c-.64,1.3-1.54,2.32-2.71,3.05-1.16.73-2.52,1.1-4.08,1.1s-2.87-.37-4.04-1.1c-1.16-.73-2.06-1.76-2.71-3.07-.64-1.31-.96-2.83-.96-4.54s.32-3.16.96-4.42c.64-1.27,1.54-2.27,2.71-3s2.51-1.1,4.04-1.1,2.92.37,4.08,1.1c1.16.73,2.06,1.74,2.71,3.03.64,1.28.96,2.78.96,4.49s-.32,3.17-.96,4.47Z"/>
      <path class="cls-2" d="M610.9,425.28c-.25-.21-.37-.63-.37-1.24v-10.22c0-2.72-.82-4.81-2.45-6.26-1.64-1.45-3.95-2.18-6.95-2.18-1.86,0-3.51.29-4.93.87s-2.56,1.41-3.42,2.5c-.86,1.09-1.38,2.39-1.56,3.92h3.76c.24-1.19.89-2.15,1.93-2.87,1.04-.72,2.38-1.08,4.04-1.08,1.83,0,3.26.43,4.29,1.28,1.02.86,1.54,2.05,1.54,3.58v1.6h-6.88c-3.06,0-5.39.63-6.99,1.88-1.6,1.25-2.41,3.06-2.41,5.41,0,1.41.36,2.62,1.08,3.65.72,1.02,1.73,1.81,3.03,2.36,1.3.55,2.8.83,4.52.83,2.26,0,4.04-.48,5.34-1.44,1.02-.76,1.85-1.6,2.51-2.52.03,1.06.28,1.92.79,2.57.6.75,1.73,1.12,3.42,1.12h2.06v-3.44h-1.19c-.52,0-.9-.11-1.15-.32ZM606.77,419.5c0,1.28-.29,2.42-.87,3.42-.58.99-1.42,1.77-2.52,2.34-1.1.57-2.43.85-3.99.85s-2.8-.36-3.71-1.08c-.92-.72-1.38-1.64-1.38-2.77,0-1.34.45-2.33,1.35-2.96.9-.63,2.19-.94,3.87-.94h7.24v1.15Z"/>
      <path class="cls-2" d="M621.07,424.98c-.4-.41-.6-1.11-.6-2.09v-13.8h6.05v-3.44h-6.05v-6.56h-3.76v6.56h-4.22v3.44h4.22v13.85c0,2.05.46,3.58,1.38,4.58s2.49,1.51,4.72,1.51h4.08v-3.44h-3.71c-1.01,0-1.71-.21-2.11-.62Z"/>
      <path class="cls-2" d="M644.92,406.89c-1.74-1.01-3.76-1.51-6.05-1.51s-4.27.5-6.03,1.51c-1.76,1.01-3.13,2.41-4.1,4.2-.98,1.79-1.47,3.87-1.47,6.26s.49,4.43,1.47,6.24c.98,1.8,2.35,3.21,4.1,4.22,1.76,1.01,3.77,1.51,6.03,1.51s4.31-.5,6.05-1.51,3.1-2.41,4.08-4.22c.98-1.8,1.47-3.88,1.47-6.24s-.49-4.47-1.47-6.26c-.98-1.79-2.34-3.19-4.08-4.2ZM645.65,421.77c-.64,1.3-1.54,2.32-2.71,3.07s-2.52,1.12-4.08,1.12-2.92-.37-4.08-1.12c-1.16-.75-2.06-1.77-2.71-3.07-.64-1.3-.96-2.77-.96-4.42s.32-3.16.96-4.45,1.54-2.3,2.71-3.05c1.16-.75,2.52-1.12,4.08-1.12s2.92.38,4.08,1.12c1.16.75,2.06,1.77,2.71,3.05s.96,2.77.96,4.45-.32,3.12-.96,4.42Z"/>
      <path class="cls-2" d="M660.64,406.3c-.98.43-1.74.97-2.29,1.63-.37.44-.68.88-.96,1.33l-.5-3.6h-3.26v23.38h3.76v-11.92c0-1.25.18-2.48.53-3.67.35-1.19.99-2.18,1.9-2.96.92-.78,2.19-1.17,3.81-1.17h1.88v-3.67h-1.05c-1.56,0-2.83.21-3.81.64Z"/>
      <path class="cls-2" d="M669.54,396.85c-.67,0-1.25.23-1.72.69-.47.46-.71,1.04-.71,1.74s.24,1.28.71,1.74c.47.46,1.05.69,1.72.69s1.28-.23,1.74-.69c.46-.46.69-1.04.69-1.74s-.23-1.28-.69-1.74c-.46-.46-1.04-.69-1.74-.69Z"/>
      <rect class="cls-2" x="667.61" y="405.65" width="3.76" height="23.38"/>
      <path class="cls-2" d="M702.25,406.71c-1.64-.89-3.55-1.33-5.75-1.33s-4.13.5-5.8,1.51c-1.67,1.01-2.97,2.41-3.9,4.2-.93,1.79-1.4,3.87-1.4,6.26s.48,4.47,1.44,6.26,2.32,3.19,4.06,4.2c1.74,1.01,3.77,1.51,6.1,1.51,1.8,0,3.42-.35,4.84-1.05s2.59-1.67,3.51-2.89,1.53-2.61,1.83-4.17h-3.81c-.4,1.5-1.19,2.67-2.38,3.51-1.19.84-2.61,1.26-4.26,1.26-1.47,0-2.75-.32-3.85-.96-1.1-.64-1.95-1.54-2.54-2.68-.6-1.15-.93-2.45-.99-3.92v-.32h18.16c.03-.28.05-.55.07-.83.02-.28.02-.54.02-.78-.06-2.32-.56-4.31-1.49-5.96-.93-1.65-2.22-2.92-3.85-3.81ZM689.57,414.96c.12-1.28.52-2.39,1.19-3.32.67-.93,1.52-1.66,2.54-2.18,1.02-.52,2.1-.78,3.23-.78,1.96,0,3.57.54,4.84,1.63,1.27,1.08,1.99,2.64,2.18,4.65h-13.98Z"/>
      <path class="cls-2" d="M741.15,425.28c-.25-.21-.37-.63-.37-1.24v-10.22c0-2.72-.82-4.81-2.45-6.26-1.64-1.45-3.95-2.18-6.95-2.18-1.86,0-3.51.29-4.93.87s-2.56,1.41-3.42,2.5c-.86,1.09-1.38,2.39-1.56,3.92h3.76c.24-1.19.89-2.15,1.93-2.87,1.04-.72,2.38-1.08,4.04-1.08,1.83,0,3.26.43,4.29,1.28,1.02.86,1.54,2.05,1.54,3.58v1.6h-6.88c-3.06,0-5.39.63-6.99,1.88-1.6,1.25-2.41,3.06-2.41,5.41,0,1.41.36,2.62,1.08,3.65.72,1.02,1.73,1.81,3.03,2.36,1.3.55,2.8.83,4.52.83,2.26,0,4.04-.48,5.34-1.44,1.02-.76,1.85-1.6,2.51-2.52.03,1.06.28,1.92.79,2.57.6.75,1.73,1.12,3.42,1.12h2.06v-3.44h-1.19c-.52,0-.9-.11-1.15-.32ZM737.03,419.5c0,1.28-.29,2.42-.87,3.42-.58.99-1.42,1.77-2.52,2.34-1.1.57-2.43.85-3.99.85s-2.8-.36-3.71-1.08c-.92-.72-1.38-1.64-1.38-2.77,0-1.34.45-2.33,1.35-2.96.9-.63,2.19-.94,3.87-.94h7.24v1.15Z"/>
      <path class="cls-2" d="M762.79,406.78c-1.68-.93-3.61-1.4-5.78-1.4s-3.99.49-5.36,1.47c-1.09.77-1.97,1.64-2.66,2.59l-.51-3.78h-3.26v32.55h3.76v-12.76c.62.96,1.47,1.8,2.59,2.51,1.42.9,3.23,1.35,5.43,1.35s4.1-.5,5.78-1.51c1.68-1.01,3.01-2.41,3.99-4.2.98-1.79,1.47-3.87,1.47-6.26,0-2.54-.49-4.7-1.47-6.49-.98-1.79-2.31-3.15-3.99-4.08ZM763.44,421.82c-.64,1.3-1.54,2.32-2.71,3.05-1.16.73-2.52,1.1-4.08,1.1s-2.87-.37-4.04-1.1c-1.16-.73-2.06-1.76-2.71-3.07-.64-1.31-.96-2.83-.96-4.54s.32-3.16.96-4.42c.64-1.27,1.54-2.27,2.71-3s2.51-1.1,4.04-1.1,2.92.37,4.08,1.1c1.16.73,2.06,1.74,2.71,3.03.64,1.28.96,2.78.96,4.49s-.32,3.17-.96,4.47Z"/>
      <path class="cls-2" d="M788.97,406.78c-1.68-.93-3.61-1.4-5.78-1.4s-3.99.49-5.36,1.47c-1.09.77-1.97,1.64-2.66,2.59l-.51-3.78h-3.26v32.55h3.76v-12.76c.62.96,1.47,1.8,2.59,2.51,1.42.9,3.23,1.35,5.43,1.35s4.1-.5,5.78-1.51c1.68-1.01,3.01-2.41,3.99-4.2.98-1.79,1.47-3.87,1.47-6.26,0-2.54-.49-4.7-1.47-6.49-.98-1.79-2.31-3.15-3.99-4.08ZM789.62,421.82c-.64,1.3-1.54,2.32-2.71,3.05-1.16.73-2.52,1.1-4.08,1.1s-2.87-.37-4.04-1.1c-1.16-.73-2.06-1.76-2.71-3.07-.64-1.31-.96-2.83-.96-4.54s.32-3.16.96-4.42c.64-1.27,1.54-2.27,2.71-3s2.51-1.1,4.04-1.1,2.92.37,4.08,1.1c1.16.73,2.06,1.74,2.71,3.03.64,1.28.96,2.78.96,4.49s-.32,3.17-.96,4.47Z"/>
      <path class="cls-2" d="M817.13,425.28c-.25-.21-.37-.63-.37-1.24v-10.22c0-2.72-.82-4.81-2.45-6.26-1.64-1.45-3.95-2.18-6.95-2.18-1.86,0-3.51.29-4.93.87s-2.56,1.41-3.42,2.5c-.86,1.09-1.38,2.39-1.56,3.92h3.76c.24-1.19.89-2.15,1.93-2.87,1.04-.72,2.38-1.08,4.04-1.08,1.83,0,3.26.43,4.29,1.28,1.02.86,1.54,2.05,1.54,3.58v1.6h-6.88c-3.06,0-5.39.63-6.99,1.88-1.6,1.25-2.41,3.06-2.41,5.41,0,1.41.36,2.62,1.08,3.65.72,1.02,1.73,1.81,3.03,2.36,1.3.55,2.8.83,4.52.83,2.26,0,4.04-.48,5.34-1.44,1.02-.76,1.85-1.6,2.51-2.52.03,1.06.28,1.92.79,2.57.6.75,1.73,1.12,3.42,1.12h2.06v-3.44h-1.19c-.52,0-.9-.11-1.15-.32ZM813,419.5c0,1.28-.29,2.42-.87,3.42-.58.99-1.42,1.77-2.52,2.34-1.1.57-2.43.85-3.99.85s-2.8-.36-3.71-1.08c-.92-.72-1.38-1.64-1.38-2.77,0-1.34.45-2.33,1.35-2.96.9-.63,2.19-.94,3.87-.94h7.24v1.15Z"/>
      <path class="cls-2" d="M835.17,416.34c-1.45-.4-3.06-.7-4.84-.92-1.13-.15-2.14-.31-3.03-.48-.89-.17-1.58-.47-2.09-.89-.5-.43-.76-1.07-.76-1.93,0-1.07.5-1.93,1.51-2.57s2.32-.96,3.94-.96,2.94.4,3.97,1.19c1.02.79,1.6,1.79,1.72,2.98h3.85c-.18-2.45-1.15-4.28-2.91-5.5-1.76-1.22-3.97-1.85-6.62-1.88-1.74-.03-3.31.24-4.7.83-1.39.58-2.48,1.4-3.28,2.45-.8,1.05-1.19,2.3-1.19,3.74,0,1.22.24,2.22.73,3,.49.78,1.16,1.4,2.02,1.86.86.46,1.85.82,2.98,1.08,1.13.26,2.35.47,3.67.62,1.16.12,2.2.28,3.12.46.92.18,1.64.5,2.16.96.52.46.78,1.18.78,2.16,0,.7-.25,1.33-.73,1.88-.49.55-1.15.97-1.99,1.26-.84.29-1.81.44-2.91.44-1.96,0-3.51-.45-4.65-1.35-1.15-.9-1.75-2.04-1.81-3.42h-3.85c.06,2.57,1.04,4.54,2.93,5.92,1.9,1.38,4.36,2.06,7.38,2.06,1.74,0,3.32-.28,4.72-.85,1.41-.57,2.53-1.38,3.37-2.45.84-1.07,1.26-2.32,1.26-3.76,0-1.74-.43-3.06-1.28-3.97-.86-.9-2.01-1.55-3.46-1.95Z"/>
      <path class="cls-2" d="M856.44,416.34c-1.45-.4-3.06-.7-4.84-.92-1.13-.15-2.14-.31-3.03-.48-.89-.17-1.58-.47-2.09-.89-.5-.43-.76-1.07-.76-1.93,0-1.07.5-1.93,1.51-2.57s2.32-.96,3.94-.96,2.94.4,3.97,1.19c1.02.79,1.6,1.79,1.72,2.98h3.85c-.18-2.45-1.15-4.28-2.91-5.5-1.76-1.22-3.97-1.85-6.62-1.88-1.74-.03-3.31.24-4.7.83-1.39.58-2.48,1.4-3.28,2.45-.8,1.05-1.19,2.3-1.19,3.74,0,1.22.24,2.22.73,3,.49.78,1.16,1.4,2.02,1.86.86.46,1.85.82,2.98,1.08,1.13.26,2.35.47,3.67.62,1.16.12,2.2.28,3.12.46.92.18,1.64.5,2.16.96.52.46.78,1.18.78,2.16,0,.7-.25,1.33-.73,1.88-.49.55-1.15.97-1.99,1.26-.84.29-1.81.44-2.91.44-1.96,0-3.51-.45-4.65-1.35-1.15-.9-1.75-2.04-1.81-3.42h-3.85c.06,2.57,1.04,4.54,2.93,5.92,1.9,1.38,4.36,2.06,7.38,2.06,1.74,0,3.32-.28,4.72-.85,1.41-.57,2.53-1.38,3.37-2.45.84-1.07,1.26-2.32,1.26-3.76,0-1.74-.43-3.06-1.28-3.97-.86-.9-2.01-1.55-3.46-1.95Z"/>
      <path class="cls-2" d="M866.14,396.85c-.67,0-1.25.23-1.72.69-.47.46-.71,1.04-.71,1.74s.24,1.28.71,1.74c.47.46,1.05.69,1.72.69s1.28-.23,1.74-.69c.46-.46.69-1.04.69-1.74s-.23-1.28-.69-1.74c-.46-.46-1.04-.69-1.74-.69Z"/>
      <rect class="cls-2" x="864.21" y="405.65" width="3.76" height="23.38"/>
      <path class="cls-2" d="M888.79,406.89c-1.74-1.01-3.76-1.51-6.05-1.51s-4.27.5-6.03,1.51c-1.76,1.01-3.13,2.41-4.1,4.2-.98,1.79-1.47,3.87-1.47,6.26s.49,4.43,1.47,6.24c.98,1.8,2.35,3.21,4.1,4.22,1.76,1.01,3.77,1.51,6.03,1.51s4.31-.5,6.05-1.51,3.1-2.41,4.08-4.22c.98-1.8,1.47-3.88,1.47-6.24s-.49-4.47-1.47-6.26c-.98-1.79-2.34-3.19-4.08-4.2ZM889.52,421.77c-.64,1.3-1.54,2.32-2.71,3.07s-2.52,1.12-4.08,1.12-2.92-.37-4.08-1.12c-1.16-.75-2.06-1.77-2.71-3.07-.64-1.3-.96-2.77-.96-4.42s.32-3.16.96-4.45,1.54-2.3,2.71-3.05c1.16-.75,2.52-1.12,4.08-1.12s2.92.38,4.08,1.12c1.16.75,2.06,1.77,2.71,3.05s.96,2.77.96,4.45-.32,3.12-.96,4.42Z"/>
      <path class="cls-2" d="M913.75,406.43c-1.42-.7-3.02-1.05-4.79-1.05-2.23,0-4,.44-5.3,1.33-.99.68-1.79,1.39-2.4,2.14l-.51-3.19h-3.26v23.38h3.76v-11.69c0-1.74.28-3.26.85-4.54.57-1.28,1.38-2.27,2.43-2.96,1.05-.69,2.32-1.03,3.78-1.03,2.05,0,3.61.63,4.7,1.88,1.08,1.25,1.63,3.1,1.63,5.55v12.79h3.76v-13.02c0-2.6-.42-4.67-1.26-6.21-.84-1.54-1.97-2.67-3.39-3.37Z"/>
      <path class="cls-2" d="M941.61,425.28c-.25-.21-.37-.63-.37-1.24v-10.22c0-2.72-.82-4.81-2.45-6.26-1.64-1.45-3.95-2.18-6.95-2.18-1.86,0-3.51.29-4.93.87s-2.56,1.41-3.42,2.5c-.86,1.09-1.38,2.39-1.56,3.92h3.76c.24-1.19.89-2.15,1.93-2.87,1.04-.72,2.38-1.08,4.04-1.08,1.83,0,3.26.43,4.29,1.28,1.02.86,1.54,2.05,1.54,3.58v1.6h-6.88c-3.06,0-5.39.63-6.99,1.88-1.6,1.25-2.41,3.06-2.41,5.41,0,1.41.36,2.62,1.08,3.65.72,1.02,1.73,1.81,3.03,2.36,1.3.55,2.8.83,4.52.83,2.26,0,4.04-.48,5.34-1.44,1.02-.76,1.85-1.6,2.51-2.52.03,1.06.28,1.92.79,2.57.6.75,1.73,1.12,3.42,1.12h2.06v-3.44h-1.19c-.52,0-.9-.11-1.15-.32ZM937.48,419.5c0,1.28-.29,2.42-.87,3.42-.58.99-1.42,1.77-2.52,2.34-1.1.57-2.43.85-3.99.85s-2.8-.36-3.71-1.08c-.92-.72-1.38-1.64-1.38-2.77,0-1.34.45-2.33,1.35-2.96.9-.63,2.19-.94,3.87-.94h7.24v1.15Z"/>
      <path class="cls-2" d="M951.78,424.98c-.4-.41-.6-1.11-.6-2.09v-13.8h6.05v-3.44h-6.05v-6.56h-3.76v6.56h-4.22v3.44h4.22v13.85c0,2.05.46,3.58,1.38,4.58s2.49,1.51,4.72,1.51h4.08v-3.44h-3.71c-1.01,0-1.71-.21-2.11-.62Z"/>
      <rect class="cls-2" x="959.72" y="405.65" width="3.76" height="23.38"/>
      <path class="cls-2" d="M961.64,401.71c.7,0,1.28-.23,1.74-.69.46-.46.69-1.04.69-1.74s-.23-1.28-.69-1.74c-.46-.46-1.04-.69-1.74-.69s-1.25.23-1.72.69c-.47.46-.71,1.04-.71,1.74s.24,1.28.71,1.74c.47.46,1.05.69,1.72.69Z"/>
    </g>
  </g>
</svg>