<?xml version="1.0" encoding="UTF-8"?>
<svg id="Livello_2" data-name="Livello 2" xmlns="http://www.w3.org/2000/svg" viewBox="0 0 674.19 177.17">
  <defs>
    <style>
      .cls-1 {
        fill: #fffafb;
      }

      .cls-2 {
        fill: #03e0cf;
      }

      .cls-3 {
        fill: #041917;
      }
    </style>
  </defs>
  <g id="events">
    <rect class="cls-3" width="674.19" height="177.17"/>
    <g>
      <path class="cls-1" d="M99.72,70.41c-4.87-2.58-10.54-3.88-17.03-3.88s-12.36,1.45-17.36,4.34c-5,2.89-8.88,6.93-11.64,12.1-2.76,5.17-4.14,11.22-4.14,18.15s1.4,12.84,4.21,18.02c2.8,5.17,6.79,9.18,11.97,12.03,5.17,2.85,11.26,4.27,18.28,4.27,5.61,0,10.54-1.03,14.79-3.09,4.25-2.06,7.71-4.87,10.39-8.42,2.67-3.55,4.41-7.52,5.19-11.9h-14.2c-.97,3.68-2.96,6.58-5.98,8.68-3.02,2.1-6.69,3.16-10.98,3.16-3.68,0-6.93-.79-9.73-2.37-2.81-1.58-4.98-3.79-6.51-6.64-1.53-2.85-2.39-6.16-2.56-9.93v-.92h50.76c.09-.88.17-1.78.26-2.7.09-.92.13-1.82.13-2.7-.18-6.58-1.64-12.27-4.41-17.09-2.76-4.82-6.57-8.53-11.44-11.11ZM64.94,93.62c.35-3.24,1.38-6.03,3.09-8.35,1.71-2.32,3.86-4.12,6.44-5.39,2.58-1.27,5.37-1.91,8.35-1.91,5,0,9.09,1.36,12.29,4.08,3.2,2.72,5.11,6.57,5.72,11.57h-35.9Z"/>
      <polygon class="cls-1" points="166.45 67.32 148.18 119.39 129.63 67.32 114.38 67.32 139.23 134.65 156.59 134.65 181.45 67.32 166.45 67.32"/>
      <path class="cls-1" d="M230.43,70.41c-4.87-2.58-10.54-3.88-17.03-3.88s-12.36,1.45-17.36,4.34c-5,2.89-8.88,6.93-11.64,12.1-2.76,5.17-4.14,11.22-4.14,18.15s1.4,12.84,4.21,18.02c2.8,5.17,6.79,9.18,11.97,12.03,5.17,2.85,11.26,4.27,18.28,4.27,5.61,0,10.54-1.03,14.79-3.09,4.25-2.06,7.71-4.87,10.39-8.42,2.67-3.55,4.41-7.52,5.19-11.9h-14.2c-.97,3.68-2.96,6.58-5.98,8.68-3.02,2.1-6.69,3.16-10.98,3.16-3.68,0-6.93-.79-9.73-2.37-2.81-1.58-4.98-3.79-6.51-6.64-1.53-2.85-2.39-6.16-2.56-9.93v-.92h50.76c.09-.88.17-1.78.26-2.7.09-.92.13-1.82.13-2.7-.18-6.58-1.64-12.27-4.41-17.09-2.76-4.82-6.57-8.53-11.44-11.11ZM195.65,93.62c.35-3.24,1.38-6.03,3.09-8.35,1.71-2.32,3.86-4.12,6.44-5.39,2.58-1.27,5.37-1.91,8.35-1.91,5,0,9.09,1.36,12.29,4.08,3.2,2.72,5.11,6.57,5.72,11.57h-35.9Z"/>
      <path class="cls-1" d="M303.54,69.49c-4.08-1.97-8.61-2.96-13.61-2.96-6.49,0-11.55,1.32-15.19,3.95-2.47,1.79-4.58,3.72-6.35,5.8l-1.61-8.95h-12.36v67.33h14.2v-33.93c0-4.56.72-8.48,2.17-11.77,1.45-3.29,3.51-5.81,6.18-7.56,2.67-1.75,5.89-2.63,9.67-2.63,5.35,0,9.36,1.67,12.03,5,2.67,3.33,4.01,8.2,4.01,14.6v36.29h14.33v-37.48c0-7.54-1.23-13.54-3.68-18.02-2.46-4.47-5.72-7.69-9.8-9.67Z"/>
      <path class="cls-1" d="M347.4,120.51c-1.05-1.09-1.58-2.96-1.58-5.59v-35.11h16.44v-12.49h-16.44v-18.8h-14.33v18.8h-11.7v12.49h11.7v36.56c0,6.14,1.47,10.72,4.41,13.74,2.94,3.02,7.6,4.54,14,4.54h13.15v-12.49h-9.99c-2.72,0-4.6-.55-5.65-1.64Z"/>
      <path class="cls-1" d="M421.5,102.89c-2.5-2.67-5.85-4.6-10.06-5.79s-8.9-2.08-14.07-2.7c-3.24-.35-6.09-.74-8.55-1.18-2.46-.44-4.34-1.18-5.65-2.24-1.32-1.05-1.97-2.63-1.97-4.73,0-2.72,1.27-4.87,3.81-6.44,2.54-1.58,5.92-2.37,10.13-2.37s7.78.99,10.45,2.96c2.67,1.97,4.19,4.49,4.54,7.56h13.94c-.44-6.92-3.35-12.23-8.75-15.91-5.39-3.68-12.21-5.52-20.45-5.52-5.35-.09-10.1.72-14.27,2.43-4.17,1.71-7.43,4.14-9.8,7.3-2.37,3.16-3.55,6.88-3.55,11.18,0,3.51.72,6.4,2.17,8.68,1.45,2.28,3.42,4.1,5.92,5.46,2.5,1.36,5.39,2.41,8.68,3.16,3.29.75,6.86,1.34,10.72,1.78,3.51.44,6.49.9,8.94,1.38,2.45.48,4.34,1.27,5.65,2.37,1.31,1.1,1.97,2.87,1.97,5.33,0,1.75-.61,3.31-1.84,4.67-1.23,1.36-2.92,2.39-5.06,3.09-2.15.7-4.71,1.05-7.69,1.05-5.09,0-9.1-1.12-12.03-3.35-2.94-2.24-4.54-5.11-4.8-8.61h-13.94c.26,7.28,3.2,12.93,8.81,16.96,5.61,4.03,12.93,6.05,21.96,6.05,5.43,0,10.3-.85,14.6-2.56,4.29-1.71,7.69-4.14,10.19-7.3,2.5-3.16,3.75-6.88,3.75-11.18,0-5-1.25-8.83-3.75-11.51Z"/>
    </g>
    <g>
      <rect class="cls-2" x="440.32" y="120.43" width="14.15" height="14.22"/>
      <polygon class="cls-2" points="543.16 70.79 536.08 70.79 536.08 63.81 522.06 63.81 522.06 70.79 514.99 70.79 514.99 77.9 507.92 77.9 507.92 70.79 500.71 70.79 500.71 63.81 486.69 63.81 486.69 70.79 479.62 70.79 479.62 63.81 465.47 63.81 465.47 134.65 479.62 134.65 479.62 85.01 486.69 85.01 486.69 77.9 493.77 77.9 493.77 84.88 500.84 84.88 500.84 134.65 514.99 134.65 514.99 85.01 522.06 85.01 522.06 77.9 529.01 77.9 529.01 85.01 536.08 85.01 536.08 134.65 550.23 134.65 550.23 77.9 543.16 77.9 543.16 70.79"/>
      <path class="cls-2" d="M610.49,42.49v28.31h-6.94v-6.98h-28.3v6.98h-7.07v7.11h-6.94v42.52h6.94v7.11h7.07v7.11h28.3v-7.11h6.94v7.11h14.15V42.49h-14.15ZM610.49,113.32h-6.94v7.11h-21.22v-7.11h-7.07v-28.31h7.07v-7.11h21.22v7.11h6.94v28.31Z"/>
    </g>
  </g>
</svg>